<svg aria-hidden="true" role="presentation" xmlns="http://www.w3.org/2000/svg" height="24" viewBox="0 -960 960 960" width="24"><path d="M265.056-759.693h395.559v430.155L414.154-86.154l-15.847-15.231q-5.346-5.961-8.827-13.925-3.48-7.964-3.48-14.591v-5.638l40.307-193.999H148.308q-23.731 0-42.635-18.904-18.904-18.904-18.904-42.635v-48.128q0-5.365.859-11.717.859-6.351 2.987-11.386l108.041-254.553q7.791-18.648 27.144-30.74 19.354-12.092 39.256-12.092Zm358.636 36.924H264q-8.462 0-17.308 4.615t-13.461 15.384L123.692-446.475v55.398q0 10.769 6.923 17.692t17.693 6.923h323.384L426.5-149.231l197.192-196.038v-377.5Zm0 377.5V-722.769v377.5Zm36.923 15.731v-36.924h136.308v-356.307H660.615v-36.924h173.231v430.155H660.615Z"/></svg>
